Coordinates
version=1
nRows=7
nColumns=40
inDegrees=yes

Units are S.I. units (second, meters, Newtons, ...)
If the header above contains a line with 'inDegrees', this indicates whether rotational values are in degrees (yes) or radians (no).

endheader
time	pelvis_tilt	pelvis_list	pelvis_rotation	pelvis_tx	pelvis_ty	pelvis_tz	hip_flexion_r	hip_adduction_r	hip_rotation_r	knee_angle_r	knee_angle_r_beta	ankle_angle_r	subtalar_angle_r	mtp_angle_r	hip_flexion_l	hip_adduction_l	hip_rotation_l	knee_angle_l	knee_angle_l_beta	ankle_angle_l	subtalar_angle_l	mtp_angle_l	lumbar_extension	lumbar_bending	lumbar_rotation	arm_flex_r	arm_add_r	arm_rot_r	elbow_flex_r	pro_sup_r	wrist_flex_r	wrist_dev_r	arm_flex_l	arm_add_l	arm_rot_l	elbow_flex_l	pro_sup_l	wrist_flex_l	wrist_dev_l
      0.75500000	    -17.35661287	      0.87223540	     -3.31511096	      0.17718132	      0.69504164	     -1.19849088	     68.17478048	    -35.55186985	     -9.42123959	     80.06672691	      1.39742801	     19.87026017	      0.31615019	      0.00000000	     64.00256584	    -45.40189791	    -18.53199498	     78.90648436	      1.37717795	     18.84988676	     15.85893723	      0.00000000	     -8.85263132	     -1.55492696	      2.46308734	     44.99445938	    -15.00162202	     44.99445938	     75.00018312	     45.00000025	      0.00000000	      0.00000000	     44.99445938	    -15.00162202	     44.99445938	     75.00018312	     45.00000025	      0.00000000	      0.00000000
      0.76000000	    -17.18174466	      0.85753170	     -3.35100381	      0.17716213	      0.69333001	     -1.19850049	     68.29753351	    -35.68926361	     -9.32458279	     80.48096804	      1.40465788	     19.93679533	      0.23215636	      0.00000000	     64.13555846	    -45.59360108	    -18.35678600	     79.33281392	      1.38461881	     18.93186042	     15.72019031	      0.00000000	     -9.24553411	     -1.57679684	      2.43764733	     44.99447818	    -15.00161327	     44.99447818	     75.00018306	     45.00000025	      0.00000000	      0.00000000	     44.99447818	    -15.00161327	     44.99447818	     75.00018306	     45.00000025	      0.00000000	      0.00000000
      0.76500000	    -17.37629348	      0.82337614	     -3.31137346	      0.17686462	      0.69043828	     -1.19863296	     68.88359170	    -35.83311863	     -9.11498626	     81.00951554	      1.41388277	     20.25194335	      0.62741934	      0.00000000	     64.91908199	    -45.70037452	    -17.82769231	     79.86789627	      1.39395776	     19.17953385	     15.99552590	      0.00000000	     -9.14091245	     -1.52539377	      2.39884990	     44.99450572	    -15.00160023	     44.99450572	     75.00018295	     45.00000025	      0.00000000	      0.00000000	     44.99450572	    -15.00160023	     44.99450572	     75.00018295	     45.00000025	      0.00000000	      0.00000000
      0.77000000	    -17.39563462	      0.68765462	     -3.21372344	      0.17669661	      0.68815423	     -1.19903797	     69.10062640	    -36.01949885	     -9.15481854	     81.43870337	      1.42137351	     20.42723756	      0.74470676	      0.00000000	     65.56193801	    -45.78451030	    -17.23137901	     80.35818492	      1.40251491	     19.36482021	     16.00387084	      0.00000000	     -9.28054725	     -1.44123750	      2.06569429	     44.99465375	    -15.00153404	     44.99465375	     75.00018247	     45.00000025	      0.00000000	      0.00000000	     44.99465375	    -15.00153404	     44.99465375	     75.00018247	     45.00000025	      0.00000000	      0.00000000
      0.77500000	    -17.40727232	      0.59139590	     -3.17168968	      0.17656535	      0.68584380	     -1.19923466	     69.36821312	    -36.17647498	     -9.12263694	     81.88797841	      1.42921484	     20.61065101	      0.92550910	      0.00000000	     66.12716397	    -45.92420733	    -16.74181602	     80.84435062	      1.41100010	     19.48610950	     16.06992992	      0.00000000	     -9.41975183	     -1.38476515	      1.89089220	     44.99478802	    -15.00147514	     44.99478802	     75.00018206	     45.00000025	      0.00000000	      0.00000000	     44.99478802	    -15.00147514	     44.99478802	     75.00018206	     45.00000025	      0.00000000	      0.00000000
      0.78000000	    -17.43108306	      0.49488788	     -3.10603931	      0.17643438	      0.68347011	     -1.19954434	     69.64743438	    -36.35222154	     -9.07431594	     82.33083700	      1.43694418	     20.78799455	      1.07310022	      0.00000000	     66.73290108	    -46.02363797	    -16.21087592	     81.34630174	      1.41976080	     19.65973851	     16.11896714	      0.00000000	     -9.54127055	     -1.29438682	      1.70300729	     44.99492903	    -15.00141391	     44.99492903	     75.00018165	     45.00000025	      0.00000000	      0.00000000	     44.99492903	    -15.00141391	     44.99492903	     75.00018165	     45.00000025	      0.00000000	      0.00000000
      0.78500000	    -17.41217909	      0.45407837	     -3.06662068	      0.17633683	      0.68119701	     -1.19972780	     69.93979575	    -36.54289123	     -8.98015343	     82.79442904	      1.44503539	     20.94873668	      1.19375015	      0.00000000	     67.19334717	    -46.12796589	    -15.81226725	     81.81769765	      1.42798821	     19.80358008	     16.12953222	      0.00000000	     -9.71757872	     -1.26218981	      1.60955808	     44.99505387	    -15.00136048	     44.99505387	     75.00018129	     45.00000025	      0.00000000	      0.00000000	     44.99505387	    -15.00136048	     44.99505387	     75.00018129	     45.00000025	      0.00000000	      0.00000000
